<svg width="15" height="15" viewBox="0 0 15 15" fill="none" xmlns="http://www.w3.org/2000/svg">
<g clip-path="url(#clip0_304_735)">
<path d="M0 7.49999C0 5.42968 0.732421 3.66211 2.19728 2.19726C3.66211 0.732421 5.42968 0 7.50001 0C9.5703 0 11.3379 0.732421 12.8027 2.19726C14.2676 3.66211 15 5.42968 15 7.49999C15 9.5703 14.2676 11.3379 12.8027 12.8027C11.3379 14.2676 9.57032 15 7.50001 15C5.42968 15 3.66211 14.2676 2.19728 12.8027C0.732421 11.3379 0 9.57029 0 7.49999ZM0.820312 7.49999C0.820312 9.33594 1.47461 10.9082 2.7832 12.2168C4.09179 13.5254 5.66406 14.1797 7.50001 14.1797C9.33594 14.1797 10.9082 13.5254 12.2168 12.2168C13.5254 10.9082 14.1797 9.33594 14.1797 7.49999C14.1797 5.66406 13.5254 4.09179 12.2168 2.7832C10.9082 1.47461 9.33593 0.820312 7.50001 0.820312C5.66406 0.820312 4.09181 1.47461 2.7832 2.7832C1.47461 4.09179 0.820312 5.66406 0.820312 7.49999ZM2.9297 9.11132C2.89064 9.07226 2.89064 9.03319 2.9297 8.99413C3.00781 8.91601 3.10548 8.88671 3.22265 8.90624C3.33984 8.92577 3.4082 8.9453 3.42773 8.96483C3.56445 9.02343 3.71582 9.15526 3.88182 9.36035C4.04783 9.56543 4.17967 9.70702 4.27734 9.78515C4.74609 10.1758 5.22459 10.2051 5.71287 9.87304C5.75193 9.73632 5.81542 9.61913 5.90329 9.52146C5.99117 9.4238 6.0742 9.35546 6.15232 9.31638C6.23046 9.27732 6.36718 9.21873 6.56249 9.1406C5.91795 9.08201 5.39549 8.9697 4.9951 8.80368C4.59471 8.63766 4.27732 8.42771 4.04295 8.1738C3.73045 7.82224 3.54001 7.36326 3.47165 6.79685C3.40328 6.23045 3.44723 5.71287 3.6035 5.24412C3.72068 4.95115 3.8867 4.6875 4.10153 4.45311C3.94528 3.96482 3.97458 3.40818 4.18942 2.78319C4.81442 2.82225 5.38082 3.03709 5.88864 3.42772C6.8652 3.17381 7.88082 3.16404 8.93549 3.39842C9.07221 3.30076 9.28218 3.1787 9.56537 3.0322C9.84857 2.88572 10.205 2.8027 10.6347 2.78317C10.7128 2.99801 10.7666 3.25192 10.7958 3.54489C10.8251 3.83786 10.8105 4.11129 10.7519 4.3652C11.2011 4.83395 11.4355 5.45895 11.455 6.2402C11.455 6.8652 11.3476 7.38277 11.1328 7.79293C10.9179 8.20309 10.5371 8.54488 9.99019 8.81831C9.6191 8.9941 9.13082 9.10151 8.52535 9.14057C8.7988 9.27729 8.99899 9.4189 9.12594 9.56538C9.25291 9.71187 9.33591 9.94135 9.37499 10.2539V11.1767L9.40427 12.0703C9.46287 12.1679 9.53124 12.2509 9.60937 12.3193C9.68749 12.3877 9.75585 12.4365 9.81444 12.4658C9.87302 12.4951 9.89257 12.539 9.87302 12.5976C9.85349 12.6562 9.77537 12.6855 9.63866 12.6855C9.30662 12.6855 9.04296 12.5683 8.84765 12.334C8.78905 12.2363 8.75976 12.1191 8.75976 11.9824V10.5761C8.75976 10.4199 8.72069 10.3076 8.64257 10.2392C8.56444 10.1709 8.48632 10.1269 8.40819 10.1074V11.9531C8.40819 12.2851 8.44726 12.5 8.52538 12.5976C8.60351 12.6953 8.65233 12.7929 8.67188 12.8906C8.69141 12.9101 8.67676 12.9248 8.62793 12.9345C8.57912 12.9443 8.4961 12.9296 8.3789 12.8906C8.12499 12.832 7.94921 12.7001 7.85155 12.4951C7.7539 12.29 7.70507 12.0703 7.70507 11.8359V10.0195H7.32421V11.8359C7.32421 12.0703 7.27537 12.2949 7.17771 12.5098C7.04101 12.7832 6.78709 12.9297 6.41601 12.9492C6.35742 12.9297 6.32812 12.9101 6.32812 12.8906C6.34765 12.8711 6.40624 12.7734 6.5039 12.5977C6.52343 12.5586 6.54785 12.4805 6.57715 12.3633C6.60646 12.2461 6.6211 12.1094 6.6211 11.9531V10.1074C6.54298 10.1269 6.46973 10.1709 6.40137 10.2393C6.33301 10.3076 6.29882 10.4199 6.29882 10.5762V11.9824C6.29882 12.1191 6.26953 12.2363 6.21093 12.334C6.03515 12.5684 5.77148 12.6856 5.41993 12.6856C5.28321 12.6856 5.20509 12.6563 5.18556 12.5977C5.16601 12.5586 5.1709 12.5244 5.20021 12.4951C5.22952 12.4658 5.27346 12.4316 5.33206 12.3926C5.39065 12.3535 5.42971 12.3242 5.44924 12.3047C5.52737 12.2461 5.58595 12.168 5.62502 12.0703C5.68362 11.9922 5.69826 11.7871 5.66896 11.4551C5.63967 11.1231 5.63477 10.9082 5.65431 10.8106C5.14648 10.9863 4.62892 10.8984 4.10156 10.5469C3.94531 10.3906 3.78906 10.166 3.63281 9.87305C3.51562 9.65819 3.28125 9.40429 2.9297 9.11132V9.11132Z" fill="black"/>
</g>
<defs>
<clipPath id="clip0_304_735">
<rect width="15" height="15" fill="white"/>
</clipPath>
</defs>
</svg>
