<svg width="1920" height="570" viewBox="0 0 1920 570" fill="none" xmlns="http://www.w3.org/2000/svg">
<path d="M0 0H1920V570H0V0Z" fill="url(#paint0_radial_303_717)"/>
<path d="M714.223 265.615C713.868 261.709 712.288 258.673 709.482 256.506C706.712 254.305 702.753 253.204 697.604 253.204C694.195 253.204 691.354 253.648 689.081 254.536C686.808 255.423 685.104 256.648 683.967 258.211C682.831 259.738 682.245 261.496 682.21 263.484C682.138 265.118 682.458 266.556 683.168 267.799C683.914 269.042 684.979 270.143 686.364 271.102C687.785 272.025 689.489 272.842 691.478 273.552C693.467 274.262 695.704 274.884 698.19 275.416L707.565 277.547C712.962 278.719 717.721 280.281 721.84 282.234C725.995 284.188 729.475 286.513 732.281 289.212C735.121 291.911 737.27 295.018 738.726 298.534C740.182 302.05 740.928 305.991 740.963 310.359C740.928 317.249 739.188 323.161 735.743 328.097C732.298 333.033 727.344 336.815 720.881 339.443C714.454 342.071 706.695 343.385 697.604 343.385C688.477 343.385 680.523 342.018 673.74 339.283C666.957 336.549 661.684 332.394 657.92 326.819C654.156 321.244 652.22 314.195 652.114 305.672H677.362C677.575 309.188 678.516 312.117 680.185 314.461C681.854 316.805 684.145 318.58 687.057 319.788C690.004 320.995 693.413 321.599 697.284 321.599C700.835 321.599 703.854 321.119 706.339 320.161C708.861 319.202 710.796 317.87 712.146 316.165C713.495 314.461 714.188 312.508 714.223 310.306C714.188 308.246 713.548 306.489 712.305 305.033C711.063 303.541 709.145 302.263 706.553 301.197C703.996 300.097 700.729 299.085 696.751 298.161L685.352 295.498C675.906 293.332 668.467 289.834 663.033 285.004C657.6 280.139 654.901 273.57 654.937 265.295C654.901 258.548 656.712 252.636 660.37 247.558C664.028 242.479 669.088 238.52 675.551 235.679C682.014 232.838 689.383 231.418 697.657 231.418C706.109 231.418 713.442 232.856 719.656 235.732C725.906 238.573 730.754 242.568 734.198 247.717C737.643 252.866 739.401 258.832 739.472 265.615H714.223ZM807.067 306.684V260.182H833.062V342H808.239V326.766H807.387C805.576 331.773 802.487 335.75 798.119 338.697C793.786 341.609 788.548 343.065 782.405 343.065C776.83 343.065 771.929 341.787 767.703 339.23C763.477 336.673 760.192 333.104 757.849 328.523C755.505 323.907 754.315 318.509 754.28 312.33V260.182H780.327V307.217C780.363 311.656 781.535 315.153 783.843 317.71C786.151 320.267 789.294 321.545 793.271 321.545C795.864 321.545 798.19 320.977 800.249 319.841C802.344 318.669 803.996 316.982 805.203 314.781C806.446 312.543 807.067 309.844 807.067 306.684ZM849.641 342V260.182H874.943V275.097H875.795C877.287 269.699 879.719 265.686 883.093 263.058C886.466 260.395 890.39 259.063 894.865 259.063C896.072 259.063 897.315 259.152 898.594 259.33C899.872 259.472 901.062 259.702 902.162 260.022V282.661C900.92 282.234 899.286 281.897 897.262 281.648C895.273 281.4 893.498 281.276 891.935 281.276C888.846 281.276 886.058 281.968 883.572 283.353C881.122 284.702 879.187 286.602 877.766 289.053C876.381 291.467 875.689 294.308 875.689 297.575V342H849.641ZM963.087 260.182V279.358H910.459V260.182H963.087ZM921.432 342V256.027C921.432 249.706 922.621 244.468 925.001 240.313C927.38 236.123 930.683 232.998 934.908 230.938C939.134 228.843 944.017 227.795 949.557 227.795C953.179 227.795 956.588 228.08 959.784 228.648C963.016 229.18 965.413 229.66 966.975 230.086L962.82 249.156C961.862 248.836 960.69 248.57 959.305 248.357C957.955 248.143 956.677 248.037 955.469 248.037C952.415 248.037 950.32 248.712 949.184 250.061C948.048 251.411 947.479 253.257 947.479 255.601V342H921.432Z" fill="white"/>
<path d="M1000.26 342V260.182H1026.3V342H1000.26ZM1013.31 250.647C1009.65 250.647 1006.51 249.44 1003.88 247.025C1001.25 244.575 999.937 241.627 999.937 238.183C999.937 234.773 1001.25 231.862 1003.88 229.447C1006.51 226.996 1009.65 225.771 1013.31 225.771C1017 225.771 1020.14 226.996 1022.74 229.447C1025.36 231.862 1026.68 234.773 1026.68 238.183C1026.68 241.627 1025.36 244.575 1022.74 247.025C1020.14 249.44 1017 250.647 1013.31 250.647ZM1145.85 287.455C1145.85 299.457 1143.54 309.631 1138.92 317.977C1134.31 326.322 1128.06 332.661 1120.17 336.993C1112.33 341.325 1103.52 343.491 1093.75 343.491C1083.95 343.491 1075.13 341.308 1067.28 336.94C1059.43 332.572 1053.2 326.233 1048.58 317.923C1044 309.578 1041.71 299.422 1041.71 287.455C1041.71 275.452 1044 265.278 1048.58 256.933C1053.2 248.587 1059.43 242.249 1067.28 237.916C1075.13 233.584 1083.95 231.418 1093.75 231.418C1103.52 231.418 1112.33 233.584 1120.17 237.916C1128.06 242.249 1134.31 248.587 1138.92 256.933C1143.54 265.278 1145.85 275.452 1145.85 287.455ZM1118.9 287.455C1118.9 280.352 1117.88 274.351 1115.86 269.45C1113.87 264.55 1110.99 260.839 1107.23 258.317C1103.5 255.796 1099.01 254.536 1093.75 254.536C1088.53 254.536 1084.04 255.796 1080.28 258.317C1076.51 260.839 1073.62 264.55 1071.59 269.45C1069.61 274.351 1068.61 280.352 1068.61 287.455C1068.61 294.557 1069.61 300.558 1071.59 305.459C1073.62 310.359 1076.51 314.07 1080.28 316.592C1084.04 319.113 1088.53 320.374 1093.75 320.374C1099.01 320.374 1103.5 319.113 1107.23 316.592C1110.99 314.07 1113.87 310.359 1115.86 305.459C1117.88 300.558 1118.9 294.557 1118.9 287.455ZM1220.21 265.615C1219.85 261.709 1218.27 258.673 1215.47 256.506C1212.7 254.305 1208.74 253.204 1203.59 253.204C1200.18 253.204 1197.34 253.648 1195.07 254.536C1192.79 255.423 1191.09 256.648 1189.95 258.211C1188.82 259.738 1188.23 261.496 1188.2 263.484C1188.12 265.118 1188.44 266.556 1189.15 267.799C1189.9 269.042 1190.97 270.143 1192.35 271.102C1193.77 272.025 1195.48 272.842 1197.46 273.552C1199.45 274.262 1201.69 274.884 1204.18 275.416L1213.55 277.547C1218.95 278.719 1223.71 280.281 1227.83 282.234C1231.98 284.188 1235.46 286.513 1238.27 289.212C1241.11 291.911 1243.26 295.018 1244.71 298.534C1246.17 302.05 1246.91 305.991 1246.95 310.359C1246.91 317.249 1245.17 323.161 1241.73 328.097C1238.28 333.033 1233.33 336.815 1226.87 339.443C1220.44 342.071 1212.68 343.385 1203.59 343.385C1194.46 343.385 1186.51 342.018 1179.73 339.283C1172.94 336.549 1167.67 332.394 1163.91 326.819C1160.14 321.244 1158.21 314.195 1158.1 305.672H1183.35C1183.56 309.188 1184.5 312.117 1186.17 314.461C1187.84 316.805 1190.13 318.58 1193.04 319.788C1195.99 320.995 1199.4 321.599 1203.27 321.599C1206.82 321.599 1209.84 321.119 1212.33 320.161C1214.85 319.202 1216.78 317.87 1218.13 316.165C1219.48 314.461 1220.17 312.508 1220.21 310.306C1220.17 308.246 1219.53 306.489 1218.29 305.033C1217.05 303.541 1215.13 302.263 1212.54 301.197C1209.98 300.097 1206.72 299.085 1202.74 298.161L1191.34 295.498C1181.89 293.332 1174.45 289.834 1169.02 285.004C1163.59 280.139 1160.89 273.57 1160.92 265.295C1160.89 258.548 1162.7 252.636 1166.36 247.558C1170.01 242.479 1175.07 238.52 1181.54 235.679C1188 232.838 1195.37 231.418 1203.64 231.418C1212.09 231.418 1219.43 232.856 1225.64 235.732C1231.89 238.573 1236.74 242.568 1240.18 247.717C1243.63 252.866 1245.39 258.832 1245.46 265.615H1220.21Z" fill="#8742F8"/>
<defs>
<radialGradient id="paint0_radial_303_717" cx="0" cy="0" r="1" gradientUnits="userSpaceOnUse" gradientTransform="translate(960 285) rotate(90) scale(285 960)">
<stop stop-color="#351460"/>
<stop offset="1" stop-color="#280643"/>
</radialGradient>
</defs>
</svg>
