<svg width="1920" height="570" viewBox="0 0 1920 570" fill="none" xmlns="http://www.w3.org/2000/svg">
<rect width="1920" height="569.325" fill="#000240"/>
<g clip-path="url(#clip0)">
<path d="M229.856 136.942C231.741 134.402 231.7 130.385 231.099 129.636C236.23 129.142 232.341 136.162 229.856 136.942Z" fill="white"/>
<path d="M168.162 119.268C167.552 118.075 165.54 117.397 165.84 115.392C165.848 115.33 165.774 115.255 165.729 115.192C165.306 114.592 164.913 114.633 164.487 115.269C163.449 116.814 162.383 118.347 161.315 119.866C158.378 124.041 147.415 137.846 143.63 138.302C142.878 138.391 142.567 137.825 142.512 137.201C142.309 134.853 144.691 128.917 148.32 124.373C144.842 130.524 144.281 134.257 145.011 135.101C147.586 125.715 156.098 116.86 163.17 110.851C163.316 110.701 163.444 110.582 163.442 110.452C163.416 108.434 160.433 106.214 157.117 106.346C157.562 104.923 156.343 103.942 155.396 103.983C154.466 105.71 149.498 113.191 146.79 116.119C139.628 123.968 129.275 132.048 118.2 136.697C117.984 136.809 120.208 138.959 124.799 136.838C124.702 137.061 123.437 138.175 122.28 138.317C122.912 138.882 125.374 138.941 127.331 138.314C131.729 136.904 138.541 129.822 140.577 127.165C139.341 129.234 134.101 137.263 133.081 143.577C132.548 146.876 132.935 149.604 134.878 149.887C135.257 153.04 137.655 155.322 139.388 155.105C139.685 155.069 139.995 154.83 140.087 154.366C141.799 145.705 153.625 131.224 154.699 132.69C150.926 137.735 147.544 147.463 149.229 152.073C150.242 154.845 154.49 155.908 160.017 153.723C155.599 151.635 156.595 140.946 158.298 136.764C156.919 143.562 157.802 149.601 159.639 151.009L159.751 150.94C156.91 138.184 163.396 126.191 168.092 121.232C168.513 120.527 168.525 119.974 168.162 119.268Z" fill="white"/>
<path d="M107.889 167.35C102.808 168.296 100.261 158.795 107.753 155.608C109.727 154.767 113.153 154.752 113.194 156.799C103.972 158.778 104.099 166.674 107.889 167.35Z" fill="white"/>
<path d="M124.463 73.9312C90.2517 81.9129 54.9135 110.892 73.3953 118.03C67.9911 109.37 82.6238 87.7007 124.463 73.9312Z" fill="white"/>
<path d="M95.7775 179.235C97.5209 178.931 97.6361 177.354 96.4765 176.372C94.0081 174.285 93.0063 170.732 94.1251 168.654C92.6057 169.8 91.0264 172.902 91.9865 175.97C92.5859 177.885 94.2287 179.506 95.7775 179.235Z" fill="white"/>
<path d="M137.211 102.171C133.892 107.225 120.594 114.805 107.461 114.526C109.514 118.355 114.236 121.895 123.237 120.364C142.175 117.142 164.944 92.9362 163.312 76.3799C163.242 76.3799 163.171 76.3794 163.101 76.379C162.603 81.8182 159.06 89.6238 155.744 92.3192C157.72 89.834 161.399 83.0827 161.314 76.0138C161.104 58.5527 137.937 53.697 111.116 64.9499C111.009 64.9952 126.451 60.6736 133.23 61.5317C92.2144 67.886 59.7462 97.9534 58.9186 118.096C57.4637 153.53 125.931 135.621 123.701 157.418C127.13 146.732 106.978 140.546 104.647 138.999C104.899 138.888 105.079 138.891 105.248 138.926C111 140.067 124.956 146.185 125.274 154.239C125.817 168.013 106.597 171.115 102.806 168.295C103.368 170.442 107.919 173.149 112.861 171.949C110.628 173.139 101.145 173.173 100.684 165.99C100.406 161.654 102.55 158.849 102.55 158.849C102.126 158.886 101.196 160.21 100.899 160.779C100.698 161.163 100.504 161.467 99.9708 161.433C99.7399 161.418 99.3679 161.606 99.2533 161.825C95.3505 169.288 100.84 178.088 111.458 177.307C118.392 176.798 123.054 173.574 124.954 171.535C123.928 172.231 122.002 173.433 120.517 173.643C120.494 173.585 120.471 173.528 120.448 173.47C125.432 170.588 129.557 166.327 130.28 160.582C134.122 130.027 69.6106 133.643 66.5718 115.56C62.5134 91.4082 138.514 58.8991 156.269 74.3033C154.26 64.3598 127.781 68.7737 127.774 68.7006C140.727 64.4238 158.17 65.2269 158.58 75.6078C158.908 83.918 142.589 104.436 111.393 111.162C117.685 113.226 131.146 107.521 137.211 102.171Z" fill="white"/>
<path d="M232.854 128.431C231.478 124.997 216.898 126.397 208.296 130.094C208.11 129.676 207.914 129.285 207.704 128.924C210.152 122.707 217.588 111.34 225.548 103.595C226.921 102.26 228.31 101.032 229.69 99.9563C229.852 97.6381 223.664 94.6268 219.578 97.9291C214.592 103.214 209.471 113.507 207.203 118.383L206.731 118.399C207.78 112.938 213.336 102.987 216.727 99.7349C212.286 99.8902 202.956 118.322 197.935 135.273H197.924C192.629 137.503 182.763 143.46 179.39 147.03C179.202 147.229 178.958 146.495 178.941 146.234C178.367 137.231 189.088 130.71 197.601 124.748C198.676 123.994 197.942 121.776 197.492 121.389C194.287 126.103 185.524 131.05 181.511 136.465C184.423 130.847 197.065 122.828 196.869 119.707C196.585 115.192 190.841 110.531 188.38 109.29C188.827 108.519 189.942 106.38 189.569 104.099C189.144 101.491 186.422 100.343 184.119 100.567C184.533 102.093 184.082 104.477 183.663 105.739C179.181 102.723 172.216 102.263 172.154 106.121C175.253 103.907 181.673 105.514 184.505 107.435C172.009 103.392 168.803 110.132 170.418 113.699C170.418 113.699 175.621 113.542 179.804 115.083C178.861 117.744 172.634 130.107 165.517 137.796C166.02 137.634 166.505 137.533 166.937 137.339C167.799 136.957 175.695 126.394 177.881 123.109C177.924 123.316 176.127 127.045 172.813 132.128C176.497 127.9 182.441 118.675 183.931 116.311C183.931 116.311 188.292 118.016 188.483 121.059C188.807 126.212 166.153 138.599 166.49 148.125C166.551 149.873 167.467 152.423 169.298 154.082C168.556 152.597 168.19 150.651 168.43 148.476C168.764 145.45 170.272 141.98 173.584 138.679C167.487 146.227 169.641 153.057 170.945 154.933C151.048 156.187 134.924 163.243 134.847 174.2C134.895 174.441 134.688 174.77 134.533 175.014C132.53 178.168 133.405 182.103 134.771 182.577C144.153 171.293 160.224 162.076 174.33 159.43C174.332 159.168 173.191 159.207 171.344 159.5C164.516 160.46 155.864 162.919 148.901 167.094C148.713 161.279 174.017 155.386 189.95 157.641C190.211 155.335 185.282 154.438 179.797 154.348C182.405 144.03 198.738 135.478 205.021 133.338C198.82 135.97 188.855 142.102 184.412 148.778C188.611 145.04 194.197 141.006 196.559 139.915C190.735 163.955 196.907 173.737 201.315 173.583C204.379 173.477 207.217 170.316 208.991 163.078C207.597 166.325 205.826 168.516 204.146 168.574C199.977 168.72 199.425 162.556 199.425 162.556C202.091 169.322 209.744 164.059 210.581 151.987C210.64 151.152 210.693 150.296 210.734 149.405C210.915 145.483 210.742 140.631 210.03 136.384C215.992 134.563 225.649 134.434 228.257 136.444C228.901 132.861 222.273 132.02 211.536 134.358C218.804 132.008 229.084 131.18 229.761 134.628C230.104 136.379 229.091 138.963 228.318 139.956C227.944 140.435 229.182 140.072 229.507 139.654C231.3 137.356 234.255 131.93 232.854 128.431ZM203.672 160.468C200.359 160.664 200.917 147.87 204.888 137.644C205.258 137.485 205.677 137.339 206.129 137.203C206.814 145.076 205.54 153.497 204.222 157.196C206.115 157.131 208.193 148.906 208.073 141.098L208.467 141.085C209.531 153.516 205.757 160.394 203.672 160.468Z" fill="white"/>
</g>
<rect x="891.288" y="107.976" width="137.423" height="353.374" fill="#FF0C5A"/>
<defs>
<clipPath id="clip0">
<rect x="58.8958" y="58.8958" width="174.724" height="123.681" fill="white"/>
</clipPath>
</defs>
</svg>
