<svg width="176" height="125" viewBox="0 0 176 125" fill="none" xmlns="http://www.w3.org/2000/svg">
<g clip-path="url(#clip0)">
<path d="M171.856 78.9416C173.741 76.4018 173.7 72.3854 173.099 71.6362C178.23 71.1422 174.341 78.162 171.856 78.9416Z" fill="white"/>
<path d="M110.162 61.2676C109.552 60.0751 107.539 59.3967 107.84 57.392C107.848 57.3296 107.774 57.255 107.729 57.1916C107.306 56.5916 106.913 56.6332 106.487 57.2686C105.449 58.8145 104.383 60.3467 103.315 61.8656C100.378 66.0411 89.4148 79.846 85.6299 80.3022C84.8784 80.3912 84.5667 79.8252 84.5122 79.2007C84.3093 76.8535 86.691 70.9175 90.3204 66.3726C86.8424 72.5243 86.2805 76.2569 87.0112 77.1012C89.5863 67.715 98.0978 58.8601 105.17 52.8505C105.316 52.7013 105.443 52.582 105.442 52.4515C105.416 50.4338 102.433 48.2137 99.1173 48.3459C99.5616 46.9234 98.3429 45.9424 97.3964 45.9826C96.4655 47.7097 91.4981 55.1906 88.7904 58.1194C81.6278 65.9678 71.2751 74.0476 60.2004 78.6974C59.9836 78.8085 62.2078 80.9591 66.7994 78.8378C66.7019 79.0613 65.4365 80.1751 64.2799 80.3172C64.9121 80.8825 67.3739 80.9407 69.3305 80.3138C73.7287 78.9036 80.5408 71.8221 82.5771 69.1655C81.3414 71.234 76.1013 79.263 75.0807 85.5769C74.5478 88.8757 74.9351 91.6042 76.8777 91.887C77.2568 95.04 79.6546 97.3225 81.3881 97.1048C81.6851 97.0687 81.9947 96.8302 82.0868 96.3661C83.7992 87.705 95.6246 73.2241 96.6991 74.6902C92.9255 79.7353 89.544 89.4631 91.2288 94.0734C92.2418 96.8448 96.4901 97.9082 102.017 95.7235C97.5986 93.6352 98.5953 82.9462 100.298 78.7635C98.9188 85.5616 99.802 91.6015 101.639 93.009L101.751 92.9398C98.9103 80.1837 105.396 68.191 110.092 63.2322C110.513 62.5266 110.525 61.9739 110.162 61.2676Z" fill="white"/>
<path d="M49.8889 109.35C44.8077 110.296 42.2609 100.795 49.7532 97.6079C51.7271 96.7673 55.1526 96.7517 55.1945 98.7987C45.9718 100.778 46.0993 108.674 49.8889 109.35Z" fill="white"/>
<path d="M66.4633 15.9312C32.2517 23.9129 -3.08654 52.8916 15.3953 60.0297C9.99111 51.3703 24.6238 29.7007 66.4633 15.9312Z" fill="white"/>
<path d="M37.7774 121.235C39.5208 120.931 39.6361 119.354 38.4764 118.372C36.0081 116.285 35.0063 112.732 36.125 110.654C34.6056 111.8 33.0263 114.902 33.9864 117.97C34.5858 119.885 36.2287 121.506 37.7774 121.235Z" fill="white"/>
<path d="M79.211 44.1715C75.8916 49.225 62.5938 56.805 49.4614 56.5263C51.5141 60.355 56.2363 63.895 65.2374 62.3638C84.175 59.1423 106.944 34.9362 105.312 18.3799C105.242 18.3799 105.171 18.3794 105.101 18.379C104.603 23.8182 101.06 31.6238 97.7436 34.3192C99.7199 31.834 103.399 25.0827 103.314 18.0138C103.104 0.552708 79.937 -4.30301 53.1156 6.94992C53.0086 6.9952 68.4508 2.67361 75.2305 3.53174C34.2144 9.88596 1.74617 39.9534 0.918617 60.096C-0.536261 95.5301 67.9308 77.6209 65.7008 99.4177C69.13 88.7324 48.9782 82.5456 46.6466 80.9988C46.8989 80.8877 47.0786 80.8908 47.2484 80.9255C52.9997 82.0666 66.9563 88.1849 67.2737 96.2391C67.8173 110.013 48.5967 113.115 44.8063 110.295C45.3676 112.442 49.919 115.149 54.8608 113.949C52.628 115.139 43.1451 115.173 42.6844 107.99C42.4055 103.654 44.5496 100.849 44.5496 100.849C44.1264 100.886 43.1962 102.21 42.8992 102.779C42.6984 103.163 42.5041 103.467 41.9708 103.433C41.7399 103.418 41.3679 103.606 41.2533 103.825C37.3505 111.288 42.8399 120.088 53.4583 119.307C60.3918 118.798 65.0536 115.574 66.9536 113.535C65.9279 114.231 64.0024 115.433 62.5171 115.643C62.4942 115.585 62.4707 115.528 62.4479 115.47C67.432 112.588 71.5571 108.327 72.2796 102.582C76.1218 72.0273 11.6106 75.6434 8.57181 57.5597C4.51342 33.4082 80.5139 0.89909 98.2687 16.3033C96.26 6.35976 69.781 10.7737 69.7741 10.7006C82.7272 6.42385 100.17 7.22685 100.58 17.6078C100.908 25.918 84.5893 46.4356 53.3929 53.1617C59.6849 55.2261 73.1464 49.5208 79.211 44.1715Z" fill="white"/>
<path d="M174.854 70.4313C173.478 66.9968 158.898 68.3968 150.296 72.0943C150.11 71.6763 149.914 71.2855 149.704 70.9239C152.152 64.7065 159.588 53.3401 167.548 45.5952C168.921 44.2599 170.31 43.0317 171.689 41.9563C171.852 39.6381 165.664 36.6268 161.578 39.9291C156.592 45.214 151.471 55.5071 149.203 60.3835L148.731 60.3995C149.78 54.9381 155.336 44.9874 158.727 41.7349C154.286 41.8902 144.956 60.3225 139.935 77.2726H139.924C134.629 79.5029 124.763 85.4597 121.39 89.0301C121.202 89.2291 120.958 88.4952 120.941 88.2338C120.367 79.2314 131.088 72.7097 139.601 66.7481C140.676 65.9937 139.942 63.776 139.492 63.3889C136.287 68.1035 127.524 73.05 123.511 78.4647C126.423 72.8473 139.065 64.8281 138.869 61.7068C138.585 57.1916 132.84 52.5306 130.38 51.2903C130.827 50.5193 131.942 48.3799 131.569 46.0995C131.144 43.4909 128.422 42.3434 126.119 42.5666C126.533 44.0927 126.082 46.4773 125.663 47.7394C121.181 44.723 114.216 44.2627 114.154 48.121C117.253 45.9066 123.673 47.5145 126.505 49.4355C114.009 45.3925 110.803 52.1316 112.418 55.6986C112.418 55.6986 117.621 55.5422 121.804 57.0833C120.861 59.7436 114.634 72.1069 107.517 79.7959C108.02 79.6338 108.505 79.5326 108.937 79.339C109.799 78.9571 117.695 68.3938 119.881 65.1089C119.924 65.3157 118.127 69.0449 114.813 74.1284C118.497 69.9001 124.441 60.6755 125.931 58.3109C125.931 58.3109 130.292 60.0158 130.483 63.0588C130.807 68.2118 108.153 80.599 108.49 90.1248C108.551 91.8727 109.467 94.4227 111.298 96.0823C110.556 94.5968 110.19 92.6513 110.43 90.4758C110.764 87.4498 112.272 83.9796 115.584 80.6794C109.487 88.2274 111.641 95.0574 112.945 96.9327C93.0476 98.1873 76.9241 105.243 76.8474 116.2C76.8945 116.441 76.6878 116.77 76.533 117.014C74.5298 120.168 75.4051 124.103 76.7707 124.577C86.1527 113.293 102.224 104.076 116.33 101.43C116.332 101.168 115.191 101.207 113.344 101.5C106.516 102.46 97.8636 104.919 90.9012 109.094C90.7133 103.279 116.017 97.3856 131.95 99.6411C132.211 97.3351 127.282 96.4384 121.797 96.3477C124.405 86.0297 140.738 77.4784 147.021 75.3383C140.82 77.9704 130.855 84.1016 126.412 90.778C130.611 87.0403 136.197 83.0062 138.559 81.9152C132.735 105.955 138.907 115.737 143.315 115.583C146.379 115.477 149.217 112.316 150.991 105.078C149.597 108.325 147.826 110.516 146.146 110.574C141.977 110.72 141.425 104.556 141.425 104.556C144.091 111.322 151.744 106.059 152.581 93.9872C152.64 93.1525 152.693 92.2962 152.734 91.4053C152.915 87.4826 152.742 82.6314 152.03 78.3837C157.992 76.5628 167.649 76.4344 170.257 78.4436C170.901 74.861 164.273 74.0204 153.535 76.3577C160.804 74.0081 171.084 73.1795 171.761 76.6283C172.104 78.3785 171.091 80.9626 170.318 81.9561C169.944 82.4348 171.182 82.0723 171.507 81.6542C173.3 79.3564 176.255 73.9301 174.854 70.4313ZM145.672 102.468C142.359 102.664 142.917 89.8696 146.888 79.6436C147.258 79.4845 147.677 79.3394 148.129 79.2027C148.814 87.0757 147.54 95.4973 146.221 99.1961C148.115 99.1307 150.193 90.9064 150.073 83.0982L150.467 83.0852C151.531 95.516 147.757 102.394 145.672 102.468Z" fill="white"/>
</g>
<defs>
<clipPath id="clip0">
<rect x="0.895752" y="0.895752" width="174.724" height="123.681" fill="white"/>
</clipPath>
</defs>
</svg>
